<?xml version="1.0" encoding="UTF-8" standalone="no"?>
<svg
   xmlns:dc="http://purl.org/dc/elements/1.1/"
   xmlns:cc="http://creativecommons.org/ns#"
   xmlns:rdf="http://www.w3.org/1999/02/22-rdf-syntax-ns#"
   xmlns:svg="http://www.w3.org/2000/svg"
   xmlns="http://www.w3.org/2000/svg"
   xmlns:sodipodi="http://sodipodi.sourceforge.net/DTD/sodipodi-0.dtd"
   xmlns:inkscape="http://www.inkscape.org/namespaces/inkscape"
   viewBox="0 0 1000 417.32109"
   height="417.32324"
   width="1000"
   version="1.1"
   id="svg28607"
   sodipodi:docname="YouTube_2015.svg"
   inkscape:version="1.0.2-2 (e86c870879, 2021-01-15)"
   inkscape:export-filename="C:\Users\tjdru\OneDrive\Pictures\Logos\Internet\youtubelogo2015.png"
   inkscape:export-xdpi="161.63988"
   inkscape:export-ydpi="161.63988">
  <metadata
     id="metadata28613">
    <rdf:RDF>
      <cc:Work
         rdf:about="">
        <dc:format>image/svg+xml</dc:format>
        <dc:type
           rdf:resource="http://purl.org/dc/dcmitype/StillImage" />
        <dc:title></dc:title>
      </cc:Work>
    </rdf:RDF>
  </metadata>
  <defs
     id="defs28611">
    <linearGradient
       y2="325.65271"
       x2="323.49701"
       y1="175.4245"
       x1="323.49701"
       gradientUnits="userSpaceOnUse"
       id="lozenge_1_"
       gradientTransform="matrix(1.6501574,0,0,1.6501574,-162.96613,-162.86442)">
      <stop
         id="stop45"
         style="stop-color:#e42526;stop-opacity:1"
         offset="0" />
      <stop
         offset="0.72937906"
         style="stop-color:#de2426;stop-opacity:1;"
         id="stop109" />
      <stop
         id="stop47"
         style="stop-color:#bf1f26;stop-opacity:1"
         offset="1" />
    </linearGradient>
  </defs>
  <sodipodi:namedview
     pagecolor="#ffffff"
     bordercolor="#666666"
     borderopacity="1"
     objecttolerance="10"
     gridtolerance="10"
     guidetolerance="10"
     inkscape:pageopacity="0"
     inkscape:pageshadow="2"
     inkscape:window-width="1366"
     inkscape:window-height="705"
     id="namedview28609"
     showgrid="false"
     inkscape:zoom="0.6779608"
     inkscape:cx="478.65959"
     inkscape:cy="188.20082"
     inkscape:window-x="-8"
     inkscape:window-y="-8"
     inkscape:window-maximized="1"
     inkscape:current-layer="layer2"
     inkscape:document-rotation="0"
     inkscape:snap-bbox="false"
     inkscape:bbox-nodes="true"
     inkscape:bbox-paths="false"
     inkscape:snap-nodes="true"
     inkscape:snap-bbox-edge-midpoints="false"
     showguides="true"
     inkscape:guide-bbox="true"
     inkscape:snap-others="true"
     inkscape:snap-page="false" />
  <g
     inkscape:groupmode="layer"
     id="layer2"
     inkscape:label="Layer 1"
     transform="translate(16.323084,-254.04188)">
    <g
       id="g4711"
       transform="matrix(1.6837487,0,0,1.6837487,11.160887,-173.70037)">
      <path
         sodipodi:nodetypes="cccccccccccccccccccc"
         id="lozenge_2_-9"
         class="st0"
         d="m 574.26825,307.50634 c 0,0 -3.46533,-24.25732 -14.02634,-34.98334 -13.53129,-14.02634 -28.54772,-14.02634 -35.47838,-14.85142 -49.50472,-3.63034 -123.92682,-3.63034 -123.92682,-3.63034 h -0.16502 c 0,0 -74.25708,0 -123.92682,3.63034 -6.93066,0.82508 -21.94709,0.82508 -35.47838,14.85142 -10.56101,10.72602 -14.02634,34.98334 -14.02634,34.98334 0,0 -3.46533,28.54772 -3.46533,57.09544 v 26.73255 c 0,28.54773 3.46533,57.09545 3.46533,57.09545 0,0 3.46533,24.25731 14.02634,34.98334 13.53129,14.02633 31.18797,13.53129 39.10873,15.01643 28.38271,2.64025 120.29647,3.46533 120.29647,3.46533 0,0 74.4221,-0.16502 123.92682,-3.63035 6.93066,-0.82508 21.9471,-0.82508 35.47839,-14.85141 10.56101,-10.72603 14.02634,-34.98334 14.02634,-34.98334 0,0 3.46533,-28.54772 3.46533,-57.09545 v -26.73255 c 0.33003,-28.54772 -3.30032,-57.09544 -3.30032,-57.09544 z"
         style="fill:#ec222c;fill-opacity:1;stroke:none;stroke-width:1.65016"
         inkscape:connector-curvature="0" />
      <path
         id="y_2_-5"
         style="fill:#000000;stroke:none;stroke-width:1.65016"
         d="m 37.142016,389.51916 v 65.18122 H 13.379749 V 389.51916 L -16.323084,294.63511 H 8.594293 l 16.831605,62.37595 16.501574,-62.37595 H 66.844849 Z M 126.0855,374.00768 c 0,-12.87123 -2.7074,-22.39237 -7.09568,-28.38271 -6.00819,-8.20166 -15.34646,-11.5511 -24.917374,-11.5511 -10.726023,0 -18.89281,3.36145 -24.917376,11.5511 -4.537173,6.16772 -7.095677,15.84151 -7.095677,28.54773 v 42.57406 c 0,12.70621 2.194449,21.41508 6.765645,27.55763 5.990073,8.04916 15.676495,12.54119 25.247408,12.54119 9.405894,0 19.223484,-4.35275 25.412424,-12.54119 4.53784,-6.00391 6.60063,-14.85142 6.60063,-27.55763 z m -22.60716,45.0493 c -0.0414,11.886 -2.47523,17.8217 -9.405894,17.8217 -6.930661,0 -9.405897,-5.86133 -9.405897,-17.8217 v -47.35952 c 0,-11.88423 2.475236,-17.49167 9.405897,-17.49167 6.930664,0 9.612774,5.47736 9.570914,17.49167 z m 79.37258,35.6434 v -13.03625 c -8.58082,9.73593 -15.84151,14.68641 -23.59725,14.68641 -6.93067,0 -11.73069,-3.29427 -14.19136,-9.24089 -1.49973,-3.62434 -2.47523,-9.24088 -2.47523,-17.49166 v -94.88406 h 22.60715 v 97.19428 c 0,3.33723 1.98019,4.62044 4.78546,4.62044 4.29041,0 8.25079,-3.79537 13.03624,-10.396 v -91.41872 h 22.60716 v 119.96645 z"
         sodipodi:nodetypes="cccccccccccccccccccccccccccccccccccccccccc" />
      <path
         id="T-8"
         style="fill:#ffffff;stroke:none;stroke-width:1.65016"
         d="m 327.73474,294.63511 v 22.60716 H 301.49723 V 454.70038 H 277.89998 V 317.24227 h -24.91737 v -22.60716 z m 36.63349,160.06527 v -13.03625 c -8.58082,9.73593 -15.84151,14.68641 -23.59725,14.68641 -6.93066,0 -11.73068,-3.29427 -14.19135,-9.24089 -1.49973,-3.62434 -2.47524,-9.24088 -2.47524,-17.49166 v -95.04908 h 22.60716 v 97.3593 c 0,3.33723 1.98019,4.62044 4.78545,4.62044 4.29041,0 8.25079,-3.79537 13.03625,-10.396 v -91.41872 h 22.60715 v 119.96645 z m 84.32304,-120.46149 c -7.92075,0 -15.67649,4.78545 -22.60715,13.36627 v -52.97005 h -21.28703 v 160.06527 h 21.28703 v -11.88114 c 7.09567,8.91085 15.01643,13.5313 22.60715,13.5313 8.58082,0 14.9111,-4.60153 17.65669,-13.36628 1.545,-4.93212 2.31022,-12.70621 2.31022,-23.76227 v -47.35951 c 0,-11.22107 -1.41938,-18.99611 -2.80527,-23.59725 -2.73972,-9.09587 -8.58082,-14.02634 -17.16164,-14.02634 z m -2.47523,86.13821 c 0,11.88114 -2.80527,16.33656 -8.91085,16.33656 -3.46533,0 -7.59073,-1.81517 -11.22107,-5.44552 v -71.94686 c 3.63034,-3.46533 7.59072,-5.44552 11.22107,-5.44552 6.2706,0 8.91085,3.46533 8.91085,15.34646 z m 101.97972,-21.45204 v -24.25732 c 0,-12.70621 -2.50899,-21.92192 -6.93066,-27.88766 -5.97445,-8.06076 -14.52138,-12.37618 -25.41242,-12.37618 -10.89104,0 -19.46702,4.29417 -25.74246,12.37618 -4.6156,5.94433 -7.26069,15.84151 -7.26069,28.38271 v 41.58397 c 0,12.54119 2.91496,21.49394 7.42571,27.39261 6.21562,8.12811 14.6864,12.21117 25.90747,12.21117 11.22107,0 19.96096,-4.29453 25.90747,-12.87123 2.63431,-3.79949 4.37941,-8.07434 4.95047,-12.87123 0.25434,-2.13645 0.82508,-7.09568 0.82508,-14.02634 v -3.30031 h -22.60715 c 0,8.58082 0.0533,13.70518 -0.16502,14.85141 -1.10208,5.7859 -4.29041,8.58082 -9.57091,8.58082 -7.42571,0 -10.06596,-5.44429 -10.06596,-16.50157 v -21.28703 z m -42.73907,-30.85795 c 0,-11.05605 2.97028,-14.02633 10.23097,-14.02633 7.09568,0 9.90095,3.30031 9.90095,14.19135 v 12.87123 h -20.13192 z"
         sodipodi:nodetypes="cccccccccccccccccccccccccccccccccccccccccccccccccccccccccccccccccccc" />
    </g>
  </g>
  <style
     type="text/css"
     id="style43">
	.st0{fill:url(#lozenge_1_);}
	.st1{fill:#FFFFFF;}
</style>
</svg>
